<svg width="47" height="47" viewBox="0 0 47 47" fill="none" xmlns="http://www.w3.org/2000/svg">
<path d="M46.787 14.8869V5.61822C46.787 2.55866 44.2916 0.0615234 41.2341 0.0615234H31.9494C30.4881 0.0615234 29.0493 0.646439 28.0377 1.68129L24.4407 5.28077C24.2609 2.37869 21.8554 0.0615234 18.9103 0.0615234H5.78136C2.72392 0.0615234 0.228516 2.55866 0.228516 5.61822V18.7563C0.228516 21.7034 2.54407 24.1106 5.44414 24.2905L1.84716 27.89C0.813025 28.9249 0.228516 30.3647 0.228516 31.8269V41.1181C0.228516 44.1777 2.72392 46.6748 5.78136 46.6748H15.0661C16.5273 46.6748 17.9661 46.0899 19.0003 45.055L22.5973 41.4556C22.7771 44.3576 25.1826 46.6748 28.1276 46.6748H41.2566C44.314 46.6748 46.8095 44.1777 46.8095 41.1181V27.9575C46.8095 25.0104 44.4939 22.5808 41.5938 22.4233L45.1908 18.8238C46.2025 17.789 46.787 16.3492 46.787 14.8869ZM5.78136 22.4008C3.75806 22.4008 2.11693 20.7585 2.11693 18.7563V5.61822C2.11693 3.59351 3.75806 1.95125 5.78136 1.95125H18.9103C20.9337 1.95125 22.5748 3.59351 22.5748 5.61822V7.1705L7.33256 22.4008H5.78136ZM44.8986 27.9575V41.0956C44.8986 43.1203 43.2574 44.7626 41.2341 44.7626H28.1051C26.0818 44.7626 24.4407 43.1203 24.4407 41.0956V27.9575C24.4407 25.9328 26.0818 24.2905 28.1051 24.2905H41.2341C43.2574 24.2905 44.8986 25.9328 44.8986 27.9575ZM44.8986 14.8869C44.8986 15.8542 44.5164 16.7991 43.8195 17.474L38.8961 22.4008H28.1051C25.0477 22.4008 22.5523 24.8979 22.5523 27.9575V38.7559L17.6289 43.6827C16.9545 44.3576 16.0103 44.7626 15.0436 44.7626H5.78136C3.75806 44.7626 2.11693 43.1203 2.11693 41.1181V31.8269C2.11693 30.8596 2.49911 29.9147 3.19603 29.2398L29.3641 3.0311C30.0385 2.35619 30.9827 1.95125 31.9494 1.95125H41.2341C43.2574 1.95125 44.8986 3.59351 44.8986 5.61822V14.8869Z" fill="#8EFF95"/>
</svg>
