<svg width="91" height="17" viewBox="0 0 91 17" fill="none" xmlns="http://www.w3.org/2000/svg">
<path d="M9.09616 0.647461L7.16346 6.75833H0.925293L5.97277 10.5332L4.04869 16.6352L9.09616 12.8603L14.135 16.6352L12.2109 10.5332L17.2584 6.75833H11.0202L9.09616 0.647461Z" fill="#19292C"/>
<path d="M27.5094 0.647461L25.5853 6.75833H19.3472L24.3946 10.5332L22.4619 16.6352L27.5094 12.8603L32.5569 16.6352L30.6242 10.5332L35.6717 6.75833H29.4335L27.5094 0.647461Z" fill="#19292C"/>
<path d="M45.9297 0.647461L43.997 6.75833H37.7588L42.8063 10.5332L40.8822 16.6352L45.9297 12.8603L50.9685 16.6352L49.0444 10.5332L54.0919 6.75833H47.8537L45.9297 0.647461Z" fill="#19292C"/>
<path d="M64.3424 0.647461L62.4183 6.75833H56.1802L61.2277 10.5332L59.2949 16.6352L64.3424 12.8603L69.3899 16.6352L67.4658 10.5332L72.5047 6.75833H66.2665L64.3424 0.647461Z" fill="#19292C"/>
<path d="M82.7632 0.647461L80.8305 6.75833H74.5923L79.6398 10.5332L77.7157 16.6352L82.7632 12.8603L87.8106 16.6352L85.8779 10.5332L90.9254 6.75833H84.6872L82.7632 0.647461Z" fill="#19292C"/>
</svg>
