<svg width="37" height="35" viewBox="0 0 37 35" fill="none" xmlns="http://www.w3.org/2000/svg">
<path d="M4.43963 25.9201L4.81685 23.267C4.91744 22.5691 4.68482 21.8587 4.19443 21.3557L2.33349 19.4319C1.47217 18.5455 1.47217 17.1372 2.33349 16.2444L4.19443 14.3206C4.68482 13.8114 4.91744 13.1072 4.81685 12.4094L4.43963 9.75626C4.26359 8.5303 5.09347 7.39235 6.31315 7.1786L8.9474 6.71336C9.64525 6.59391 10.2425 6.15382 10.5757 5.53141L11.8331 3.1675C12.4115 2.07356 13.7507 1.63976 14.8634 2.18044L17.2714 3.35611C17.9063 3.66417 18.6482 3.66417 19.2832 3.35611L21.6911 2.18044C22.8039 1.63976 24.143 2.07356 24.7214 3.1675L25.9788 5.53141C26.312 6.15382 26.9093 6.59391 27.6072 6.71336L30.2414 7.1786C31.4611 7.39235 32.2847 8.5303 32.1149 9.75626L31.7377 12.4094C31.6371 13.1072 31.8697 13.8177 32.3601 14.3206L34.2211 16.2444C35.0824 17.1309 35.0824 18.5392 34.2211 19.4319L32.3601 21.3557C31.8697 21.865 31.6371 22.5691 31.7377 23.267L32.1149 25.9201C32.291 27.1461 31.4611 28.284 30.2414 28.4978L27.6072 28.963C26.9093 29.0824 26.312 29.5225 25.9788 30.145L24.7214 32.5089C24.143 33.6028 22.8039 34.0366 21.6911 33.4959L19.2832 32.3202C18.6482 32.0122 17.9063 32.0122 17.2714 32.3202L14.8634 33.4959C13.7507 34.0366 12.4115 33.6028 11.8331 32.5089L10.5757 30.145" stroke="#19292C" stroke-width="2.5" stroke-linecap="round"/>
</svg>
